<svg version="1.0" xmlns="http://www.w3.org/2000/svg" width="800.000000" height="800.000000" viewBox="0 0 800.000000 800.000000" preserveAspectRatio="xMidYMid meet">
  <metadata>
    <rdf:RDF xmlns:rdf="http://www.w3.org/1999/02/22-rdf-syntax-ns#" xmlns:rdfs="http://www.w3.org/2000/01/rdf-schema#" xmlns:dc="http://purl.org/dc/elements/1.1/">
      <rdf:Description dc:format="image/svg+xml" dc:Label="1" dc:ContentProducer="001191330110MACRLGPT8B00000" dc:ProduceID="440316199" dc:ReservedCode1="RvzxaV/58ZkpElaYKpzOERVD8ecNTXSthTIEaY0gSnw=" dc:ContentPropagator="001191330110MACRLGPT8B00000" dc:PropagateID="440316199" dc:ReservedCode2="RvzxaV/58ZkpElaYKpzOERVD8ecNTXSthTIEaY0gSnw="/>
    </rdf:RDF>
  </metadata>
  <g transform="translate(183.249130,625.436873) scale(0.054985,-0.054985)" fill="#000000" stroke="none">
    <path d="M995 7909 c-208 -26 -445 -145 -585 -295 -129 -138 -218 -311 -250 -485 -9 -48 -12 -682 -11 -2577 2 -2712 -1 -2577 54 -2723 94 -248 259 -426 500 -539 156 -73 211 -83 484 -88 l242 -4 3 -377 3 -378 30 -48 c45 -73 101 -108 179 -113 82 -5 112 5 276 93 124 66 1023 566 1340 744 l135 76 1775 5 1775 5 80 23 c97 27 222 85 307 143 174 118 323 332 385 549 17 62 18 173 18 2635 l0 2570 -23 80 c-92 314 -322 554 -634 661 -165 56 -17 54 -3138 53 -1581 -1 -2906 -5 -2945 -10z m5891 -400 c88 -15 213 -81 282 -148 105 -100 167 -220 183 -354 6 -53 9 -949 7 -2507 l-3 -2425 -28 -80 c-67 -191 -210 -324 -412 -382 -56 -16 -187 -18 -1855 -23 l-1795 -5 -210 -117 c-115 -65 -439 -245 -720 -401 l-510 -284 -5 306 c-5 291 -6 308 -27 347 -25 48 -76 94 -136 126 -40 22 -57 23 -337 29 -248 6 -305 10 -361 26 -201 59 -359 221 -409 419 -20 79 -20 103 -18 2549 l3 2470 26 67 c58 150 160 266 293 332 136 69 -94 64 3087 65 1994 1 2904 -2 2945 -10z"/>
    <path d="M1587 5916 c-90 -33 -147 -110 -147 -202 1 -93 62 -177 149 -203 52 -15 4488 -16 4544 0 43 12 111 68 132 110 53 101 10 224 -99 282 l-41 22 -2250 2 c-1863 2 -2256 0 -2288 -11z"/>
    <path d="M1603 4060 c-51 -12 -96 -43 -127 -88 -41 -57 -48 -149 -17 -209 25 -50 83 -100 131 -113 22 -6 663 -10 1735 -10 l1700 0 50 24 c90 41 131 113 123 212 -6 72 -46 129 -113 163 l-49 26 -1701 2 c-935 0 -1714 -2 -1732 -7z"/>
  </g>
</svg>