<svg version="1.0" xmlns="http://www.w3.org/2000/svg" width="800.000000" height="800.000000" viewBox="0 0 800.000000 800.000000" preserveAspectRatio="xMidYMid meet">
  <metadata>
    <rdf:RDF xmlns:rdf="http://www.w3.org/1999/02/22-rdf-syntax-ns#" xmlns:rdfs="http://www.w3.org/2000/01/rdf-schema#" xmlns:dc="http://purl.org/dc/elements/1.1/">
      <rdf:Description dc:format="image/svg+xml" dc:Label="1" dc:ContentProducer="001191330110MACRLGPT8B00000" dc:ProduceID="440323997" dc:ReservedCode1="ZUKtZTvZGR+iFDY5KAKZXLPIsHCca7G/ZOi0PDYQgAM=" dc:ContentPropagator="001191330110MACRLGPT8B00000" dc:PropagateID="440323997" dc:ReservedCode2="ZUKtZTvZGR+iFDY5KAKZXLPIsHCca7G/ZOi0PDYQgAM="/>
    </rdf:RDF>
  </metadata>
  <g transform="translate(0.000000,800.000000) scale(0.100000,-0.100000)" fill="#000000" stroke="none">
    <path d="M3237 6109 c-52 -12 -362 -170 -537 -274 -160 -95 -218 -145 -258 -220 -26 -49 -27 -55 -28 -230 0 -208 -11 -263 -77 -390 -31 -60 -64 -103 -132 -171 -82 -82 -101 -95 -217 -152 -219 -108 -235 -143 -253 -547 -9 -196 8 -436 37 -513 30 -83 92 -140 204 -186 116 -48 209 -117 283 -211 71 -89 112 -171 141 -282 18 -71 21 -104 18 -260 -3 -172 -2 -180 22 -228 37 -75 101 -132 249 -219 164 -98 437 -236 510 -259 62 -20 143 -22 192 -6 19 7 66 34 104 62 95 69 183 112 284 138 71 18 104 21 205 17 172 -7 263 -42 448 -171 71 -49 146 -66 225 -49 118 24 626 299 720 390 24 23 56 68 70 99 28 61 28 65 23 308 -3 134 19 227 81 345 78 151 178 243 356 331 155 76 194 120 224 254 18 80 18 608 1 713 -24 143 -88 221 -230 281 -193 81 -356 268 -412 473 -18 65 -21 102 -19 235 2 199 -11 241 -98 325 -60 58 -404 258 -622 362 -77 36 -94 41 -161 41 -84 0 -111 -11 -200 -81 -126 -98 -271 -146 -445 -146 -176 0 -312 44 -440 142 -104 80 -175 101 -268 79z m923 -1475 c324 -109 515 -444 445 -779 -8 -38 -33 -108 -56 -155 -34 -69 -58 -101 -128 -170 -90 -89 -155 -130 -271 -170 -88 -31 -257 -38 -352 -16 -325 76 -544 367 -525 696 10 175 68 302 197 430 144 144 292 203 495 196 88 -2 127 -9 195 -32z"/>
  </g>
</svg>