<svg version="1.0" xmlns="http://www.w3.org/2000/svg" width="800.000000" height="800.000000" viewBox="0 0 800.000000 800.000000" preserveAspectRatio="xMidYMid meet">
  <metadata>
    <rdf:RDF xmlns:rdf="http://www.w3.org/1999/02/22-rdf-syntax-ns#" xmlns:rdfs="http://www.w3.org/2000/01/rdf-schema#" xmlns:dc="http://purl.org/dc/elements/1.1/">
      <rdf:Description dc:format="image/svg+xml" dc:Label="1" dc:ContentProducer="001191330110MACRLGPT8B00000" dc:ProduceID="440317299" dc:ReservedCode1="dtN4eLosIH04VGG3m2vX5wqccsWc3JcztJ4UA3yzkHA=" dc:ContentPropagator="001191330110MACRLGPT8B00000" dc:PropagateID="440317299" dc:ReservedCode2="dtN4eLosIH04VGG3m2vX5wqccsWc3JcztJ4UA3yzkHA="/>
    </rdf:RDF>
  </metadata>
  <g transform="translate(0.000000,800.000000) scale(0.100000,-0.100000)" fill="#000000" stroke="none">
    <path d="M2893 6360 c-184 -27 -391 -135 -519 -272 -75 -81 -120 -147 -168 -250 -87 -184 -81 -44 -81 -1853 l0 -1600 28 -88 c110 -350 396 -604 742 -657 48 -7 412 -10 1140 -8 l1070 3 90 28 c103 32 236 100 313 159 120 93 238 249 291 388 64 165 61 75 61 1782 0 1029 -4 1575 -11 1618 -59 367 -368 681 -734 745 -75 13 -237 15 -1129 14 -572 -1 -1064 -5 -1093 -9z m1459 -852 c325 -152 281 -601 -67 -694 -79 -21 -1118 -20 -1200 1 -144 38 -245 149 -275 301 -26 135 41 288 160 364 94 60 80 59 730 57 l595 -2 57 -27z m169 -1109 c62 -43 64 -132 4 -186 l-35 -33 -795 0 c-676 0 -800 2 -824 14 -74 39 -87 139 -25 197 l26 24 776 5 c427 3 793 3 812 1 19 -2 47 -12 61 -22z m-11 -645 c56 -34 76 -105 45 -164 -32 -62 4 -60 -874 -60 l-799 0 -31 25 c-40 34 -56 84 -41 129 11 33 42 69 70 79 8 3 372 6 808 6 718 1 797 -1 822 -15z m0 -649 c37 -19 60 -62 60 -111 0 -29 -8 -44 -39 -75 l-39 -39 -798 0 c-784 0 -800 0 -832 20 -46 28 -68 82 -53 131 6 21 25 49 42 63 l31 26 799 0 c696 0 804 -2 829 -15z"/>
  </g>
</svg>