<svg version="1.0" xmlns="http://www.w3.org/2000/svg" width="800.000000" height="800.000000" viewBox="0 0 800.000000 800.000000" preserveAspectRatio="xMidYMid meet">
  <metadata>
    <rdf:RDF xmlns:rdf="http://www.w3.org/1999/02/22-rdf-syntax-ns#" xmlns:rdfs="http://www.w3.org/2000/01/rdf-schema#" xmlns:dc="http://purl.org/dc/elements/1.1/">
      <rdf:Description dc:format="image/svg+xml" dc:Label="1" dc:ContentProducer="001191330110MACRLGPT8B00000" dc:ProduceID="440323285" dc:ReservedCode1="fTmCt9/VCYu574RTe1IkBQOxwGOviU55uNXoJj+gYIk=" dc:ContentPropagator="001191330110MACRLGPT8B00000" dc:PropagateID="440323285" dc:ReservedCode2="fTmCt9/VCYu574RTe1IkBQOxwGOviU55uNXoJj+gYIk="/>
    </rdf:RDF>
  </metadata>
  <g transform="translate(184.217226,620.903003) scale(0.054494,-0.054494)" fill="#000000" stroke="none">
    <path d="M2004 7891 c-628 -111 -1121 -636 -1184 -1261 -8 -72 -10 -892 -8 -2640 l4 -2535 21 -90 c73 -301 198 -530 398 -730 192 -192 386 -309 627 -379 204 -59 100 -56 2103 -56 1205 0 1862 4 1905 10 133 21 291 72 420 136 417 206 705 591 796 1064 18 90 19 219 21 2562 2 1674 0 2512 -7 2608 -31 404 -215 756 -529 1008 -169 136 -348 227 -560 285 l-116 32 -1895 2 c-1777 1 -1901 0 -1996 -16z m3918 -413 c191 -52 339 -138 474 -272 136 -135 233 -306 282 -494 16 -63 17 -232 17 -2632 0 -2067 -3 -2578 -13 -2630 -69 -343 -297 -626 -618 -764 -43 -19 -117 -45 -164 -58 l-85 -23 -1845 0 c-2061 0 -1893 -6 -2086 70 -359 141 -621 480 -663 858 -14 127 -15 4924 -1 5047 27 236 116 427 280 603 154 165 399 289 625 316 39 5 887 8 1885 7 l1815 -1 97 -27z"/>
    <path d="M2425 6700 c-145 -20 -280 -86 -394 -195 -136 -131 -200 -273 -209 -462 -9 -216 49 -365 202 -519 76 -76 105 -98 176 -132 174 -83 81 -77 1205 -77 l1000 0 80 27 c412 140 609 587 425 963 -91 186 -251 319 -455 379 -68 20 -93 21 -1020 22 -522 1 -977 -2 -1010 -6z m1961 -417 c75 -26 155 -111 177 -189 21 -74 21 -106 2 -171 -20 -67 -89 -144 -160 -177 l-54 -26 -945 0 c-920 0 -947 1 -999 20 -59 22 -129 85 -158 142 -29 57 -35 143 -15 213 14 47 29 69 74 114 98 96 15 89 1088 90 855 1 945 -1 990 -16z"/>
    <path d="M2030 4824 c-77 -33 -120 -101 -120 -189 0 -91 44 -155 129 -191 28 -12 241 -14 1354 -14 1319 0 1321 0 1364 21 69 33 123 115 123 185 0 72 -55 154 -125 185 -38 18 -105 19 -1365 18 -1161 0 -1329 -2 -1360 -15z"/>
    <path d="M2068 3780 c-55 -10 -114 -55 -139 -107 -32 -66 -24 -158 17 -210 17 -21 48 -48 70 -60 l39 -23 1347 3 1346 2 39 31 c51 41 79 84 87 134 13 85 -31 172 -107 212 l-42 22 -1310 1 c-720 1 -1327 -1 -1347 -5z"/>
    <path d="M2025 2714 c-149 -77 -159 -278 -17 -361 l47 -28 1336 0 1336 0 49 30 c55 34 90 88 100 152 11 76 -39 168 -110 203 -42 20 -55 20 -1377 20 -1188 0 -1337 -2 -1364 -16z"/>
  </g>
</svg>