<svg version="1.0" xmlns="http://www.w3.org/2000/svg" width="800.000000" height="800.000000" viewBox="0 0 800.000000 800.000000" preserveAspectRatio="xMidYMid meet">
  <metadata>
    <rdf:RDF xmlns:rdf="http://www.w3.org/1999/02/22-rdf-syntax-ns#" xmlns:rdfs="http://www.w3.org/2000/01/rdf-schema#" xmlns:dc="http://purl.org/dc/elements/1.1/">
      <rdf:Description dc:format="image/svg+xml" dc:Label="1" dc:ContentProducer="001191330110MACRLGPT8B00000" dc:ProduceID="440315272" dc:ReservedCode1="Xv26T4UpveCH9xPGp0o41DxEWAbuDHABsVoowLvLzZA=" dc:ContentPropagator="001191330110MACRLGPT8B00000" dc:PropagateID="440315272" dc:ReservedCode2="Xv26T4UpveCH9xPGp0o41DxEWAbuDHABsVoowLvLzZA="/>
    </rdf:RDF>
  </metadata>
  <g transform="translate(0.000000,800.000000) scale(0.100000,-0.100000)" fill="#000000" stroke="none">
    <path d="M2211 6144 c-112 -30 -213 -110 -262 -206 -50 -99 -49 -54 -49 -1508 0 -1480 -3 -1412 57 -1522 36 -67 110 -133 191 -171 67 -32 68 -32 249 -35 l182 -4 3 -195 3 -195 37 -34 c69 -62 77 -60 448 147 179 100 361 202 405 228 l80 46 956 5 955 5 75 37 c93 46 158 112 202 206 l32 67 0 1410 0 1410 -22 55 c-46 111 -132 198 -240 242 l-58 23 -1595 2 c-1371 2 -1603 0 -1649 -13z m2773 -995 c112 -31 139 -157 51 -239 l-27 -25 -1170 0 -1170 0 -33 37 c-40 43 -50 74 -41 123 8 40 63 101 98 108 13 2 525 5 1138 6 777 0 1127 -2 1154 -10z m-517 -982 c94 -51 95 -187 2 -242 -33 -19 -55 -20 -859 -23 -454 -2 -850 0 -880 3 -45 6 -61 13 -92 44 -42 42 -53 75 -44 126 8 42 66 102 104 108 15 2 412 4 882 3 798 -1 857 -2 887 -19z"/>
  </g>
</svg>