<svg version="1.0" xmlns="http://www.w3.org/2000/svg" width="800.000000" height="800.000000" viewBox="0 0 800.000000 800.000000" preserveAspectRatio="xMidYMid meet">
  <metadata>
    <rdf:RDF xmlns:rdf="http://www.w3.org/1999/02/22-rdf-syntax-ns#" xmlns:rdfs="http://www.w3.org/2000/01/rdf-schema#" xmlns:dc="http://purl.org/dc/elements/1.1/">
      <rdf:Description dc:format="image/svg+xml" dc:Label="1" dc:ContentProducer="001191330110MACRLGPT8B00000" dc:ProduceID="440310355" dc:ReservedCode1="8l9Z0RI6GHPnmiLERECuJ8VCB4eyV5OqWirDOyez69w=" dc:ContentPropagator="001191330110MACRLGPT8B00000" dc:PropagateID="440310355" dc:ReservedCode2="8l9Z0RI6GHPnmiLERECuJ8VCB4eyV5OqWirDOyez69w="/>
    </rdf:RDF>
  </metadata>
  <g transform="translate(185.678876,616.952560) scale(0.054088,-0.054088)" fill="#000000" stroke="none">
    <path d="M844 7650 c-171 -39 -330 -126 -463 -254 -168 -163 -267 -365 -291 -596 -13 -134 -14 -5375 0 -5541 39 -470 401 -846 866 -899 71 -8 930 -10 3079 -8 l2980 3 95 26 c117 33 189 64 279 123 84 54 205 167 268 250 62 82 137 242 165 351 l23 90 0 2830 0 2830 -23 79 c-84 290 -268 514 -527 641 -187 92 -162 89 -817 93 l-578 3 0 -446 c0 -431 -1 -447 -21 -486 -52 -103 -221 -101 -284 3 -19 31 -20 54 -23 481 l-3 447 -1664 0 -1664 0 -3 -454 c-3 -441 -4 -455 -24 -482 -31 -43 -67 -65 -112 -71 -58 -8 -125 19 -160 65 l-27 35 -3 454 -3 453 -492 -1 c-439 -1 -501 -3 -573 -19z m709 -617 c3 -162 10 -307 16 -331 84 -322 440 -489 738 -345 72 35 191 150 226 218 55 111 60 141 63 415 2 140 3 272 3 293 l1 37 1304 0 1303 0 5 -287 c5 -280 6 -290 32 -368 49 -146 169 -275 302 -325 150 -56 328 -43 453 32 110 66 182 153 230 276 25 66 25 73 29 370 l4 302 328 0 c382 0 438 -7 567 -71 114 -57 214 -155 266 -263 65 -131 67 -153 67 -702 0 -435 -2 -493 -16 -498 -21 -8 -6928 -8 -6988 0 l-47 7 3 516 3 516 27 73 c81 223 259 373 486 412 26 4 169 8 318 9 l272 1 5 -287z m5935 -3715 l-3 -2113 -22 -65 c-67 -194 -216 -342 -408 -403 l-70 -22 -3015 0 c-2899 0 -3017 1 -3075 18 -172 53 -312 170 -384 319 -75 159 -71 13 -71 2319 l0 2059 3525 0 3525 0 -2 -2112z"/>
    <path d="M5799 4630 c-20 -11 -61 -46 -90 -79 -30 -32 -259 -276 -509 -542 -250 -266 -547 -583 -660 -704 -112 -121 -277 -297 -365 -390 -199 -212 -423 -451 -535 -571 -47 -50 -91 -94 -98 -98 -9 -4 -177 155 -470 442 -612 600 -630 617 -675 631 -109 36 -227 -47 -227 -159 0 -22 6 -55 14 -73 8 -19 221 -236 532 -542 671 -659 735 -720 761 -734 56 -29 159 2 209 62 14 18 63 70 108 117 44 47 144 153 221 235 159 171 288 307 295 315 14 13 347 368 530 565 113 121 338 362 501 535 162 173 351 375 419 449 69 73 151 161 183 195 91 96 110 128 111 190 1 130 -140 217 -255 156z"/>
  </g>
</svg>