<svg version="1.0" xmlns="http://www.w3.org/2000/svg" width="800.000000" height="800.000000" viewBox="0 0 800.000000 800.000000" preserveAspectRatio="xMidYMid meet">
  <metadata>
    <rdf:RDF xmlns:rdf="http://www.w3.org/1999/02/22-rdf-syntax-ns#" xmlns:rdfs="http://www.w3.org/2000/01/rdf-schema#" xmlns:dc="http://purl.org/dc/elements/1.1/">
      <rdf:Description dc:format="image/svg+xml" dc:Label="1" dc:ContentProducer="001191330110MACRLGPT8B00000" dc:ProduceID="440324765" dc:ReservedCode1="hk5EDrmcH6JxcwPyWQbl1hpCx3lz3uE+yOiqMfiaZZg=" dc:ContentPropagator="001191330110MACRLGPT8B00000" dc:PropagateID="440324765" dc:ReservedCode2="hk5EDrmcH6JxcwPyWQbl1hpCx3lz3uE+yOiqMfiaZZg="/>
    </rdf:RDF>
  </metadata>
  <g transform="translate(187.232007,619.033176) scale(0.053792,-0.053792)" fill="#000000" stroke="none">
    <path d="M4905 7766 c-94 -22 -158 -51 -283 -129 -135 -84 -209 -119 -327 -153 -243 -70 -566 -72 -795 -5 -116 34 -171 59 -314 145 -187 113 -238 130 -386 130 -97 0 -128 -4 -200 -27 -130 -41 -423 -188 -805 -405 -296 -169 -404 -253 -494 -388 -97 -144 -121 -251 -121 -532 0 -280 -28 -430 -111 -595 -113 -225 -289 -383 -599 -541 -220 -113 -345 -265 -397 -485 -14 -55 -17 -161 -20 -640 -3 -402 -1 -594 7 -640 34 -193 128 -343 285 -455 33 -23 117 -72 187 -109 179 -93 230 -128 339 -236 156 -155 240 -311 291 -536 17 -74 21 -143 27 -390 l7 -300 31 -88 c17 -48 46 -113 64 -144 50 -85 188 -219 304 -295 171 -112 561 -334 770 -438 244 -122 312 -142 480 -144 169 -1 252 26 415 135 189 126 406 194 656 206 257 12 484 -49 728 -197 172 -103 259 -131 418 -131 143 0 229 24 427 121 163 80 526 284 698 391 246 155 360 266 433 424 60 130 64 153 66 445 2 349 21 458 112 654 115 245 285 409 589 569 148 78 195 110 269 186 114 117 172 248 194 440 18 152 7 1089 -13 1186 -50 236 -180 395 -431 526 -339 179 -535 371 -638 627 -60 151 -69 207 -78 477 -9 280 -16 321 -80 451 -46 94 -147 210 -244 279 -160 114 -789 453 -1007 544 -172 71 -332 95 -454 67z m240 -377 c55 -15 509 -243 735 -369 294 -163 354 -210 411 -320 21 -42 23 -60 30 -290 5 -161 13 -274 24 -328 52 -265 178 -507 369 -709 139 -147 267 -241 483 -352 203 -105 262 -175 283 -333 13 -101 13 -986 -1 -1068 -23 -143 -79 -215 -230 -294 -223 -117 -370 -219 -501 -350 -164 -162 -284 -361 -353 -581 -58 -184 -67 -250 -74 -575 l-6 -295 -29 -58 c-57 -117 -152 -188 -576 -429 -380 -217 -556 -298 -644 -298 -65 0 -146 31 -257 97 -63 38 -139 81 -170 95 -239 112 -569 167 -834 139 -276 -30 -506 -109 -730 -251 -107 -68 -166 -90 -241 -90 -77 0 -154 28 -354 132 -364 187 -706 396 -800 488 -111 109 -113 116 -121 445 -10 407 -45 570 -172 820 -145 283 -369 489 -731 671 -167 84 -223 165 -237 342 -10 138 -10 754 0 938 7 120 12 150 34 197 38 84 95 133 242 211 72 37 168 94 215 125 91 60 283 239 349 325 100 130 177 284 226 451 45 157 57 247 64 510 6 234 8 253 29 297 35 71 102 140 195 199 137 89 470 274 692 385 309 154 361 158 537 42 120 -79 205 -121 331 -163 331 -110 765 -112 1097 -3 146 48 240 91 354 163 58 36 120 72 138 80 40 17 167 19 223 4z"/>
    <path d="M3724 5434 c-491 -82 -916 -440 -1081 -909 -67 -193 -92 -475 -59 -675 51 -303 178 -549 396 -768 254 -255 610 -402 972 -402 769 1 1389 621 1388 1388 -1 381 -145 722 -418 988 -208 203 -454 328 -743 379 -104 19 -344 18 -455 -1z m480 -378 c369 -95 651 -382 746 -761 29 -113 32 -320 7 -431 -72 -320 -261 -565 -543 -707 -429 -215 -964 -98 -1260 276 -277 351 -295 835 -44 1208 84 124 247 266 390 339 70 35 198 77 280 90 41 6 82 13 90 15 46 12 243 -6 334 -29z"/>
  </g>
</svg>