<svg version="1.0" xmlns="http://www.w3.org/2000/svg" width="800.000000" height="800.000000" viewBox="0 0 800.000000 800.000000" preserveAspectRatio="xMidYMid meet">
  <metadata>
    <rdf:RDF xmlns:rdf="http://www.w3.org/1999/02/22-rdf-syntax-ns#" xmlns:rdfs="http://www.w3.org/2000/01/rdf-schema#" xmlns:dc="http://purl.org/dc/elements/1.1/">
      <rdf:Description dc:format="image/svg+xml" dc:Label="1" dc:ContentProducer="001191330110MACRLGPT8B00000" dc:ProduceID="440287423" dc:ReservedCode1="s9gXLQKKhN3XXL+/TFXSlImNt26ZAGCP0Vu6fRAcMqI=" dc:ContentPropagator="001191330110MACRLGPT8B00000" dc:PropagateID="440287423" dc:ReservedCode2="s9gXLQKKhN3XXL+/TFXSlImNt26ZAGCP0Vu6fRAcMqI="/>
    </rdf:RDF>
  </metadata>
  <g transform="translate(0.000000,800.000000) scale(0.100000,-0.100000)" fill="#000000" stroke="none">
    <path d="M2222 5849 c-181 -30 -331 -178 -371 -367 -6 -30 -11 -151 -11 -282 l0 -230 2000 0 2000 0 0 218 c0 251 -9 323 -50 409 -56 114 -141 189 -268 235 -50 19 -85 22 -299 26 l-242 4 -3 -270 c-3 -255 -4 -272 -24 -298 -39 -53 -71 -69 -134 -69 -66 0 -99 18 -137 75 -22 32 -23 40 -23 297 l0 263 -817 -2 -818 -3 -5 -270 c-5 -271 -5 -271 -30 -302 -73 -90 -201 -83 -267 16 -22 33 -23 40 -23 297 l0 264 -212 -1 c-117 -1 -237 -5 -266 -10z"/>
    <path d="M1842 3573 l3 -1048 22 -57 c50 -131 145 -229 271 -280 l57 -23 1635 0 c1535 0 1639 1 1692 18 88 27 175 92 228 171 91 133 84 32 88 1219 l3 1047 -2001 0 -2001 0 3 -1047z m3109 744 c82 -55 105 -156 53 -232 -14 -22 -117 -134 -227 -249 -787 -823 -1010 -1056 -1066 -1117 -35 -39 -66 -69 -70 -67 -7 4 -577 590 -654 673 -93 100 -107 154 -64 236 41 76 130 109 210 76 27 -12 265 -250 465 -467 l41 -44 32 29 c17 17 99 102 182 190 535 567 914 960 941 976 44 27 114 25 157 -4z"/>
  </g>
</svg>